<svg xmlns="http://www.w3.org/2000/svg" viewBox="0 0 1200 1200"><defs><style>.cls-1{fill:#c6a691;}.cls-2{fill:#af3817;}.cls-3{fill:#e2632b;}.cls-4{fill:#fff;}.cls-5,.cls-7{fill:none;stroke-linecap:round;stroke-miterlimit:10;}.cls-5{stroke:#fff;stroke-width:30.73px;}.cls-6{fill:#ef869f;}.cls-7{stroke:#000;stroke-width:15.37px;}.cls-8{fill:#472b21;}</style></defs><g id="Layer_1" data-name="Layer 1"><path class="cls-1" d="M1200,600c0,176.17-75.92,334.62-196.82,444.36a600.14,600.14,0,0,1-745.85,48.22C101.78,984.19,0,804,0,600,0,268.62,268.62,0,600,0S1200,268.62,1200,600Z"/><rect class="cls-2" x="532.44" y="736.43" width="153.67" height="120.37"/><path class="cls-3" d="M350.6,521.29c-1.24-29.94-5.85-141.2,79.4-220.26,68.65-63.67,152.18-66.21,176.72-66.59,28.09-.42,136,2.29,207.45,87.08,57.44,68.15,56.73,149.22,56.34,192.09-.35,39.61-.8,92.25-33.29,143.42C765.64,769.77,608.58,765.35,591.35,764.6c-32.7-1.41-112.5-4.86-174.16-66.59S352.06,556.53,350.6,521.29Z"/><path class="cls-4" d="M424.87,593c15.88,81,87.74,139.4,169,138.31,78.7-1.06,147.39-57.58,163.91-135.74C721.2,579,648.36,552.16,555.49,559.71A404.37,404.37,0,0,0,424.87,593Z"/><path class="cls-5" d="M804.37,556a320.35,320.35,0,0,1,174.55-5"/><path class="cls-5" d="M792.15,505.31a320.34,320.34,0,0,1,171.54-32.7"/><path class="cls-4" d="M348,480.31c33.52-37,96-19.13,117.81-12.8,42,12.17,69.13,37.46,82,51.22a361.9,361.9,0,0,1,89.64-35.86c37.34-9.34,87.44-21.19,138.3,0,16.16,6.74,41,17.63,51.22,43.54,13.54,34.2-9.18,67.65-10.24,69.16C793,629.4,747.56,632.13,716.84,634c-78.86,4.75-143.12-28-179.28-51.22-12.45,9.57-51.7,37.12-105,33.3-19.15-1.38-73-5.69-94.77-48.67C324.16,540.43,327.62,502.87,348,480.31Z"/><path d="M508.07,516c-4.37-8.49-4-20.56,1.94-28.36,8.65-11.4,26.06-9.9,57.46-6.75,31.73,3.19,49.41,5,55.75,18.07a26.2,26.2,0,0,1-1.7,24.82c-9.06,13.71-30.82,12.18-57.7,10.29C536.12,532.1,515.62,530.66,508.07,516Z"/><path d="M545.25,521.29c-8.6,9.17-4.45,25.54,5.12,30.74a17,17,0,0,0,15.37,0c10.24-5.14,15.69-21.61,7.68-30.74C566.73,513.67,552.62,513.43,545.25,521.29Z"/><path d="M507.19,595c-.39.33-3.23,2.86-3.15,6.28.26,11,30.6,21.45,56.57,22,25.79.55,56-8.45,56.57-18.85.19-3.28-2.62-5.82-3.14-6.29-9.76-8.83-27,10.1-53.43,9.43C533.93,606.89,516.75,586.71,507.19,595Z"/><path class="cls-4" d="M408.21,420.43a13.29,13.29,0,0,1,3-20.22c14.17-8.41,39.45-19,70-12.1,26.6,6,43.76,22.19,53.11,33.86a13.28,13.28,0,0,1-4,20c-14.36,7.67-39.52,17-69.6,10.13C435,446.29,417.87,431.4,408.21,420.43Z"/><circle cx="463.29" cy="421.41" r="25.61"/><path class="cls-4" d="M808,430.94a13.29,13.29,0,0,0-1.27-20.4c-13.38-9.61-37.64-22.33-68.64-18.15-27,3.65-45.54,18.3-55.86,29.1a13.29,13.29,0,0,0,2.24,20.32c13.63,8.89,37.89,20.35,68.45,16.15C779.06,454.37,797.44,441,808,430.94Z"/><circle cx="735.17" cy="426.45" r="25.61"/><circle cx="386.46" cy="513.61" r="12.81"/><circle cx="458.17" cy="503.36" r="12.81"/><circle cx="689.79" cy="518.94" r="12.81"/><circle cx="767.55" cy="538.71" r="12.81"/><circle cx="708.96" cy="580.2" r="12.81"/><circle cx="419.75" cy="564.83" r="12.81"/><path class="cls-5" d="M354.14,544.81a320.39,320.39,0,0,0-174.44-8.16"/><path class="cls-5" d="M351.91,494A320.28,320.28,0,0,0,181,458.24"/><path class="cls-3" d="M414.68,349.69c-33.06-39.06-39.17-84.45-19.88-109.32,12.6-16.24,32.57-19.29,36.44-19.88,34.63-5.28,73,19.7,96.08,62.95Z"/><path class="cls-6" d="M445.64,309.39a12.93,12.93,0,0,1-18.76-4.17c-9-16.13-9.4-32.59-1.72-42.49,6.24-8,16.14-9.55,18-9.85,13.65-2.08,26.83,2.3,37.39,14.95a12.88,12.88,0,0,1-2.62,18.7Z"/><path class="cls-3" d="M837.28,375.55c38.51-33.71,51.32-77.67,35.94-105.14-10-17.94-29.34-23.93-33.08-25.09-33.45-10.38-75.15,8.61-104.37,47.94Z"/><path class="cls-6" d="M807.23,335a12.85,12.85,0,0,0,19-1.76c10.47-14.52,12.78-30.33,6.53-40.77-5.1-8.52-14.51-11.14-16.33-11.65-12.71-3.54-25.7-1-37.24,9.45a13,13,0,0,0-.07,19.3Z"/><path class="cls-7" d="M556.16,544.81s-5.4,35.39,2.76,69.08"/><path d="M529.88,245.39s-3.15,87,10.69,98.35c18.35-40.52,66.15-109.3,66.15-109.3S549.65,234.41,529.88,245.39Z"/><path d="M656.54,237.7s-13.9,76.69-8.81,117.39c21.14-34.06,86.38-94.28,86.38-94.28S705.87,242.52,656.54,237.7Z"/><path class="cls-8" d="M1003.18,1044.36a600.14,600.14,0,0,1-745.85,48.22c10.47-37.48,23.44-63.84,39.48-74.41C410.71,943,471,905.45,471,905.45L757.83,885s79.72,36.67,205.86,94.74C980.39,987.43,993.32,1010.35,1003.18,1044.36Z"/><path class="cls-1" d="M588.79,821,666.9,930.44s-65.87,42.9-142.42,0Z"/><path class="cls-4" d="M588.79,821,537.56,987.42S471,910,471,905.17,519.7,796.62,519.7,796.62Z"/><polygon class="cls-4" points="588.79 820.95 698.92 797.9 757.82 884.98 640.01 979.74 588.79 820.95"/></g></svg>